{"title":"The.Dark.Knight.Rises.2012.TS.XViD.AC3.SeeN-CM8","uid":7563584,"size":1565117876,"categoryP":"video","categoryS":"movies","magnet":"?xt=urn:btih:2c66ccc3f957a1a1a5186bc81449311ce10ee754&amp;dn=The.Dark.Knight.Rises.2012.TS.XViD.AC3.SeeN-CM8&amp;tr=udp%3A%2F%2Ftracker.openbittorrent.com%3A80&amp;tr=udp%3A%2F%2Fopen.demonii.com%3A1337&amp;tr=udp%3A%2F%2Ftracker.coppersurfer.tk%3A6969&amp;tr=udp%3A%2F%2Fexodus.desync.com%3A6969","seeders":0,"leechers":1,"uploader":"haloReD","files":-1,"time":1345803888,"description":"                 The Dark Knight Rises 2012 TS XViD AC3 SeeN-CM8  \n\n\nComplete name    : The.Dark.Knight.Rises.2012.TS.XViD.AC3.SeeN-CM8.avi\nFormat           : AVI\nFile size        : 1.45 GiB\nDuration         : 2h 35mn\nOverall bit rate : 1 338 Kbps\n\nVideo:\n\nFormat           : MPEG-4 Visual\nCodec ID         : XVID\nDuration         : 2h 35mn\nBit rate         : 1 200 Kbps\nWidth            : 688 pixels\nHeight           : 336 pixels\nAspect ratio     : 2.048\nFrame rate       : 25.000 fps\nStream size      : 1.30 GiB (90%)\nWriting library  : XviD 64\n\nAudio:\n\nFormat           : AC-3\nBit rate         : 128 Kbps\nChannel(s)       : 2 channels\nSampling rate    : 48.0 KHz\nStream size      : 142 MiB (10%)\n\niMDB Info:\n &lt;a href=&quot;\nhttp://www.imdb.com/title/tt1345836/&quot; rel=&quot;nofollow&quot; target=&quot;_NEW&quot;&gt;\nhttp://www.imdb.com/title/tt1345836/&lt;/a&gt;\n\nRatings: 8.8/10 from 283,747 users   \n\nEight years on, a new terrorist leader, Bane, overwhelms Gotham's finest, and the Dark Knight resurfaces to protect a city that has branded him an enemy.\n\nDirector : Christopher Nolan\nWriters  : Jonathan Nolan (screenplay), Christopher Nolan (screenplay)\nStars    : Christian Bale, Tom Hardy and Anne Hathaway\n\nScreen:\n &lt;a href=&quot;\nhttp://www.postimg.com/82000/photo-81162.jpg&quot; rel=&quot;nofollow&quot; target=&quot;_NEW&quot;&gt;\nhttp://www.postimg.com/82000/photo-81162.jpg&lt;/a&gt;\n &lt;a href=&quot;\nhttp://www.postimg.com/82000/photo-81163.jpg&quot; rel=&quot;nofollow&quot; target=&quot;_NEW&quot;&gt;\nhttp://www.postimg.com/82000/photo-81163.jpg&lt;/a&gt;\n &lt;a href=&quot;\nhttp://www.postimg.com/82000/photo-81164.jpg&quot; rel=&quot;nofollow&quot; target=&quot;_NEW&quot;&gt;\nhttp://www.postimg.com/82000/photo-81164.jpg&lt;/a&gt;\n &lt;a href=&quot;\nhttp://www.postimg.com/82000/photo-81165.jpg&quot; rel=&quot;nofollow&quot; target=&quot;_NEW&quot;&gt;\nhttp://www.postimg.com/82000/photo-81165.jpg&lt;/a&gt;","torrent":{"xt":"urn:btih:2c66ccc3f957a1a1a5186bc81449311ce10ee754","amp;dn":"The.Dark.Knight.Rises.2012.TS.XViD.AC3.SeeN-CM8","amp;tr":["udp%3A%2F%2Ftracker.openbittorrent.com%3A80","udp%3A%2F%2Fopen.demonii.com%3A1337","udp%3A%2F%2Ftracker.coppersurfer.tk%3A6969","udp%3A%2F%2Fexodus.desync.com%3A6969"],"infoHash":"2c66ccc3f957a1a1a5186bc81449311ce10ee754","infoHashBuffer":{"type":"Buffer","data":[44,102,204,195,249,87,161,161,165,24,107,200,20,73,49,28,225,14,231,84]},"announce":[],"urlList":[]}}